<svg width="24" height="26" viewBox="0 0 24 26" fill="none" xmlns="http://www.w3.org/2000/svg">
<path d="M8.68344 23.2332V19.6554C8.68342 18.7453 9.42532 18.0059 10.3445 17.9998H13.7116C14.6352 17.9998 15.3839 18.741 15.3839 19.6554V19.6554V23.2443C15.3837 24.017 16.0067 24.6485 16.7869 24.6666H19.0316C21.2693 24.6666 23.0834 22.8707 23.0834 20.6554V20.6554V10.4774C23.0714 9.60588 22.6581 8.78749 21.961 8.25512L14.284 2.13277C12.9391 1.06675 11.0273 1.06675 9.68234 2.13277L2.03905 8.26623C1.33932 8.79645 0.925305 9.6162 0.916687 10.4885V20.6554C0.916687 22.8707 2.73071 24.6666 4.96842 24.6666H7.21314C8.01277 24.6666 8.66099 24.0248 8.66099 23.2332V23.2332" stroke="#6F6F6F" stroke-width="1.5" stroke-linecap="round" stroke-linejoin="round"/>
</svg>
