<svg width="21" height="24" viewBox="0 0 21 24" fill="none" xmlns="http://www.w3.org/2000/svg">
<rect x="1" y="2" width="19" height="20" fill="white"/>
<path d="M0 19.25V3.5C0 2.57174 0.368749 1.6815 1.02513 1.02513C1.6815 0.368749 2.57174 0 3.5 0H19.8333C20.1428 0 20.4395 0.122916 20.6583 0.341709C20.8771 0.560501 21 0.857247 21 1.16667V22.1667C21 22.4761 20.8771 22.7728 20.6583 22.9916C20.4395 23.2104 20.1428 23.3333 19.8333 23.3333H4.08333C3.00037 23.3333 1.96175 22.9031 1.19598 22.1374C0.430207 21.3716 0 20.333 0 19.25ZM18.6667 21V17.5H4.08333C3.6192 17.5 3.17408 17.6844 2.8459 18.0126C2.51771 18.3408 2.33333 18.7859 2.33333 19.25C2.33333 19.7141 2.51771 20.1592 2.8459 20.4874C3.17408 20.8156 3.6192 21 4.08333 21H18.6667ZM2.33333 15.5598C2.88014 15.3002 3.47801 15.1659 4.08333 15.1667H18.6667V2.33333H3.5C3.19058 2.33333 2.89383 2.45625 2.67504 2.67504C2.45625 2.89383 2.33333 3.19058 2.33333 3.5V15.5598Z" fill="#579D4A"/>
</svg>
