<svg width="22" height="24" viewBox="0 0 22 24" fill="none" xmlns="http://www.w3.org/2000/svg">
<path d="M19.1667 21.5333H19.3667V21.3333V17.8333V17.6333H19.1667H4.58333C4.06616 17.6333 3.57017 17.8387 3.20447 18.2044C2.83878 18.5701 2.63333 19.0661 2.63333 19.5833C2.63333 20.1004 2.83878 20.5964 3.20447 20.9621C3.57017 21.3278 4.06616 21.5333 4.58333 21.5333H19.1667ZM21.0169 0.816382L21.1583 0.674961L21.0169 0.816382C21.1982 0.997667 21.3 1.24354 21.3 1.49992V22.4999C21.3 22.7563 21.1982 23.0022 21.0169 23.1835C20.8356 23.3647 20.5897 23.4666 20.3333 23.4666H4.58333C3.55341 23.4666 2.56567 23.0575 1.8374 22.3292C1.10914 21.6009 0.7 20.6132 0.7 19.5833V3.83325C0.7 2.95804 1.04768 2.11867 1.66655 1.4998C2.28542 0.88093 3.12479 0.533252 4 0.533252H20.3333C20.5897 0.533252 20.8356 0.635097 21.0169 0.816382ZM2.63333 15.8931V16.2095L2.91912 16.0738C3.43904 15.8269 4.00751 15.6991 4.58307 15.6999H4.58333H19.1667H19.3667V15.4999V2.66659V2.46659H19.1667H4C3.63754 2.46659 3.28992 2.61057 3.03362 2.86687C2.77732 3.12317 2.63333 3.47079 2.63333 3.83325V15.8931Z" fill="#6F6F6F" stroke="white" stroke-width="0.4"/>
</svg>
